HIERARCHY
ROOT Hips
{
  OFFSET -25.4992 47.4658 0.522821
  CHANNELS 6 Xposition Yposition Zposition Zrotation Xrotation Yrotation
  JOINT Bip01_Pelvis
  {
    OFFSET 0 0 0
    CHANNELS 6 Xposition Yposition Zposition Zrotation Xrotation Yrotation
    JOINT Bip01_Spine
    {
      OFFSET 7.92815 1.03427 -0.957866
      CHANNELS 6 Xposition Yposition Zposition Zrotation Xrotation Yrotation
      JOINT Bip01_Spine1
      {
        OFFSET 14.2482 -0.00839019 0.000894789
        CHANNELS 6 Xposition Yposition Zposition Zrotation Xrotation Yrotation
        JOINT Bip01_Neck
        {
          OFFSET 16.1384 -3.98645 0.000135839
          CHANNELS 6 Xposition Yposition Zposition Zrotation Xrotation Yrotation
          JOINT Bip01_Neck1
          {
            OFFSET 9.69266 -0.00491233 0
            CHANNELS 6 Xposition Yposition Zposition Zrotation Xrotation Yrotation
            JOINT Bip01_Head
            {
              OFFSET 6.2355 0 0
              CHANNELS 6 Xposition Yposition Zposition Zrotation Xrotation Yrotation
              JOINT BN_Mouth_01
              {
                OFFSET 4.58056 2.14338 0
                CHANNELS 6 Xposition Yposition Zposition Zrotation Xrotation Yrotation
                End Site
                {
                  OFFSET 0 0 0
                }
              }
            }
          }
          JOINT Bip01_L_Clavicle
          {
            OFFSET -0.933029 -3.98291 -6.88005
            CHANNELS 6 Xposition Yposition Zposition Zrotation Xrotation Yrotation
            JOINT Bip01_L_UpperArm
            {
              OFFSET 15.6802 0 0
              CHANNELS 6 Xposition Yposition Zposition Zrotation Xrotation Yrotation
              JOINT Bip01_L_Forearm
              {
                OFFSET 15.3149 0 0
                CHANNELS 6 Xposition Yposition Zposition Zrotation Xrotation Yrotation
                JOINT Bip01_L_Hand
                {
                  OFFSET 16.178 0 0
                  CHANNELS 6 Xposition Yposition Zposition Zrotation Xrotation Yrotation
                  JOINT Bip01_L_Finger0
                  {
                    OFFSET 12.9992 0 0
                    CHANNELS 6 Xposition Yposition Zposition Zrotation Xrotation Yrotation
                    End Site
                    {
                      OFFSET 0 0 0
                    }
                  }
                }
              }
              JOINT BN__UpperArm_L_01
              {
                OFFSET 4.92586 2.56729 1.95639
                CHANNELS 6 Xposition Yposition Zposition Zrotation Xrotation Yrotation
                End Site
                {
                  OFFSET 0 0 0
                }
              }
            }
          }
          JOINT Bip01_R_Clavicle
          {
            OFFSET -1.90751 -3.34722 7.0168
            CHANNELS 6 Xposition Yposition Zposition Zrotation Xrotation Yrotation
            JOINT Bip01_R_UpperArm
            {
              OFFSET 15.6801 0 0
              CHANNELS 6 Xposition Yposition Zposition Zrotation Xrotation Yrotation
              JOINT Bip01_R_Forearm
              {
                OFFSET 15.3149 0 0
                CHANNELS 6 Xposition Yposition Zposition Zrotation Xrotation Yrotation
                JOINT Bip01_R_Hand
                {
                  OFFSET 16.1779 0 0
                  CHANNELS 6 Xposition Yposition Zposition Zrotation Xrotation Yrotation
                  JOINT Bip01_R_Finger0
                  {
                    OFFSET 12.9991 0 0
                    CHANNELS 6 Xposition Yposition Zposition Zrotation Xrotation Yrotation
                    End Site
                    {
                      OFFSET 0 0 0
                    }
                  }
                }
              }
              JOINT BN__UpperArm_R_01
              {
                OFFSET 4.92584 2.56728 -1.95638
                CHANNELS 6 Xposition Yposition Zposition Zrotation Xrotation Yrotation
                End Site
                {
                  OFFSET 0 0 0
                }
              }
            }
          }
        }
      }
      JOINT Bip01_L_Thigh
      {
        OFFSET -8.91231 -1.85462 5.82833
        CHANNELS 6 Xposition Yposition Zposition Zrotation Xrotation Yrotation
        JOINT Bip01_L_Calf
        {
          OFFSET 15.7566 0 0
          CHANNELS 6 Xposition Yposition Zposition Zrotation Xrotation Yrotation
          JOINT Bip01_L_HorseLink
          {
            OFFSET 16.2363 0 0
            CHANNELS 6 Xposition Yposition Zposition Zrotation Xrotation Yrotation
            JOINT Bip01_L_Foot
            {
              OFFSET 13.9816 0 0
              CHANNELS 6 Xposition Yposition Zposition Zrotation Xrotation Yrotation
              JOINT Bip01_L_Toe0
              {
                OFFSET 7.68594 5.03696 0
                CHANNELS 6 Xposition Yposition Zposition Zrotation Xrotation Yrotation
                End Site
                {
                  OFFSET 0 0 0
                }
              }
            }
          }
        }
      }
      JOINT Bip01_R_Thigh
      {
        OFFSET -6.80264 -1.57702 -6.62463
        CHANNELS 6 Xposition Yposition Zposition Zrotation Xrotation Yrotation
        JOINT Bip01_R_Calf
        {
          OFFSET 15.7566 0 0
          CHANNELS 6 Xposition Yposition Zposition Zrotation Xrotation Yrotation
          JOINT Bip01_R_HorseLink
          {
            OFFSET 16.2363 0 0
            CHANNELS 6 Xposition Yposition Zposition Zrotation Xrotation Yrotation
            JOINT Bip01_R_Foot
            {
              OFFSET 13.9816 0 0
              CHANNELS 6 Xposition Yposition Zposition Zrotation Xrotation Yrotation
              JOINT Bip01_R_Toe0
              {
                OFFSET 7.68597 5.03696 0
                CHANNELS 6 Xposition Yposition Zposition Zrotation Xrotation Yrotation
                End Site
                {
                  OFFSET 0 0 0
                }
              }
            }
          }
        }
      }
    }
    JOINT BN_Tail_01
    {
      OFFSET -7.9584 -2.82211 0
      CHANNELS 6 Xposition Yposition Zposition Zrotation Xrotation Yrotation
      JOINT BN_Tail_02
      {
        OFFSET 10.9082 0 0.00113176
        CHANNELS 6 Xposition Yposition Zposition Zrotation Xrotation Yrotation
        End Site
        {
          OFFSET 0 0 0
        }
      }
    }
  }
}
MOTION
Frames:	5
Frame Time:	0.0333333
-24.1811 51.713 -0.000652216 -101.997 -84.9807 0.00165497 0 0 0 -89.9441 -3.50835e-015 -90 7.98096 1.06462 7.39097e-006 -8.99398 -0.000282391 -3.43132 14.2466 -0.00813293 -7.15255e-007 -15.9989 -0.00566839 -7.90709 16.1388 -3.98757 -9.53674e-007 -51.9984 -0.00173036 -1.75962 9.69337 -0.00496483 -1.77636e-015 0.154465 2.76039 8.27668 6.23547 2.86102e-006 -4.76837e-007 24.9797 -6.62659 -1.03497 4.58057 2.14337 -2.38418e-007 -117.375 1.45908 -179.003 -2.33541 -3.30981 -6.90439 -127.841 9.5985 -91.095 15.6802 7.62941e-006 1.90735e-006 3.27436 -80.9421 80.4552 15.3148 -6.67575e-006 -1.43051e-006 -13.5057 -5.64562e-006 1.32944e-006 16.178 -7.62947e-006 0 -9.61745 -83.765 -21.7377 12.9992 -9.53695e-007 -6.67562e-006 1.44723 10.0958 5.65733 4.92584 2.56727 1.95639 14.1162 -8.4821 -6.70252 -1.90644 -3.31014 7.03453 -128.31 -14.8326 88.8733 15.6802 3.8147e-006 3.55271e-015 12.708 62.388 -97.3216 15.3149 1.90736e-006 2.6226e-006 -17.0944 -5.72885e-008 -1.60428e-005 16.178 -1.43052e-006 1.43051e-006 -115.776 81.1306 112.723 12.9993 4.76844e-007 2.861e-006 0.00238199 0.0453945 -5.99687 4.92584 2.56728 -1.95638 -165.885 -8.52253 173.302 -7.32443 -2.29959 6.76731 -87.1413 9.94517 -178.271 15.7566 3.8147e-006 0 -20.8602 -8.0313e-007 1.02977e-005 16.2363 -7.62939e-006 9.53673e-007 36.6752 4.00101e-006 -9.5232e-007 13.9816 -3.55271e-015 1.90734e-006 -7.05185 -5.86999 -4.77665 7.68592 5.03694 2.86101e-006 89.9959 3.18051 0.00011197 -8.081 -2.2991 -5.84347 -100.493 -5.04835 174.788 15.7566 3.55271e-015 -9.53673e-007 -23.3438 4.36579e-006 5.52775e-006 16.2363 7.62939e-006 0.000538825 36.4358 6.31793e-006 2.39885e-006 13.9816 -3.55271e-015 -9.53673e-007 -18.6975 11.6843 5.11516 7.68595 5.03699 0 89.996 -0.0026462 4.63294 -7.95839 -2.82211 7.15255e-007 -69.8609 5.70152 177.28 10.9082 -3.8147e-006 -5.96046e-007 29.9385 3.12971e-005 13.7346 
-24.1885 51.728 0.0151973 -102.037 -85.0103 -0.0292845 -2.02046e-006 4.62844e-008 5.57547e-007 -89.9721 -3.50835e-015 -90 7.98104 1.0645 0.000965692 -8.97984 0.00414113 -3.44847 14.2466 -0.00814527 7.6256e-008 -16.0073 -0.0386045 -7.81977 16.1387 -3.98757 1.00265e-006 -52.0254 0.0157913 -1.77074 9.69331 -0.00496658 2.4497e-007 0.141647 2.80841 8.22791 6.23545 2.08641e-006 9.19594e-007 24.7515 -6.51768 -1.06797 4.58054 2.14336 3.41007e-007 -117.306 1.45927 -179.002 -2.33458 -3.31257 -6.90346 -127.81 9.62214 -91.1149 15.6801 4.55208e-006 -2.20375e-006 3.83076 -80.9316 80.9615 15.3148 -3.50278e-006 -1.55435e-006 -13.5726 -2.0125e-006 4.10981e-006 16.1779 -3.66621e-006 -1.3225e-006 -9.31373 -83.7456 -21.4597 12.9992 5.32423e-007 -2.93112e-006 1.44724 10.0958 5.65731 4.92582 2.56727 1.95639 14.1162 -8.48205 -6.7025 -1.90353 -3.30845 7.03612 -128.293 -14.8641 88.8546 15.6801 -1.27434e-006 1.39528e-006 12.563 62.4045 -97.1659 15.3148 -3.43153e-006 -1.74422e-006 -17.135 -6.51348e-006 1.05582e-005 16.178 -2.38801e-006 -3.4062e-006 -115.832 81.0993 112.819 12.9992 -1.62214e-006 2.48412e-006 0.00237368 0.0454069 -5.99684 4.92582 2.56727 -1.95637 -165.886 -8.5225 173.302 -7.32251 -2.29666 6.76944 -87.0766 9.92527 -178.27 15.7566 7.39812e-006 1.63332e-006 -20.622 2.51742e-005 -3.8321e-005 16.2363 -2.18758e-006 2.89617e-006 36.5094 -1.17502e-006 -1.98098e-005 13.9816 -3.75786e-006 1.64125e-006 -7.04314 -5.84441 -4.79911 7.68591 5.03693 6.81913e-007 89.9958 3.18052 0.000138245 -8.0834 -2.2991 -5.84104 -100.399 -5.0747 174.807 15.7566 -4.35492e-006 2.6159e-007 -23.0939 8.03295e-006 7.06296e-006 16.2363 6.34513e-006 0.000540666 36.2959 1.00021e-005 -2.94125e-007 13.9816 -5.94395e-006 -1.66284e-007 -18.6902 11.7078 5.09206 7.68592 5.03697 6.82023e-007 89.996 -0.0026395 4.63293 -7.95839 -2.82211 7.06925e-007 -69.7399 5.71334 177.235 10.9082 -3.88143e-006 8.63282e-007 30.3307 -0.0159506 13.569 
-24.1958 51.743 0.0310468 -102.077 -85.0398 -0.0600161 2.07878e-006 4.92456e-008 4.80549e-007 -89.9804 -3.50835e-015 -90 7.98113 1.06438 0.00192499 -8.96901 0.0159351 -3.46864 14.2466 -0.00813771 4.21168e-007 -15.9981 -0.0742083 -7.72204 16.1388 -3.98757 3.28857e-007 -52.0487 0.0301376 -1.78338 9.6933 -0.00495942 3.74525e-007 0.0802128 2.85297 8.17335 6.23547 4.36167e-006 -1.46582e-007 24.547 -6.40346 -1.09861 4.58056 2.14337 5.79014e-008 -117.238 1.45951 -179.001 -2.33375 -3.31536 -6.90257 -127.783 9.63928 -91.1339 15.6802 6.474e-006 4.86053e-007 4.39628 -80.9334 81.4793 15.3148 7.15141e-007 -1.67775e-006 -13.6395 5.88111e-006 1.20223e-005 16.178 -3.31509e-006 -5.61746e-007 -9.01201 -83.7261 -21.1836 12.9992 -5.37712e-008 -2.85015e-007 1.44723 10.0958 5.65732 4.92584 2.56728 1.95639 14.1162 -8.48212 -6.70253 -1.90063 -3.30679 7.03776 -128.271 -14.8745 88.8319 15.6801 6.9901e-006 1.5683e-007 12.3977 62.4418 -97.0061 15.3148 3.73156e-006 6.61943e-007 -17.1757 2.54672e-006 1.33697e-005 16.178 1.76335e-006 -4.42873e-007 -115.888 81.0681 112.916 12.9992 -6.39233e-008 2.29944e-007 0.00237151 0.0454188 -5.99684 4.92583 2.56728 -1.95637 -165.885 -8.52253 173.302 -7.3206 -2.29372 6.77158 -87.0267 9.94505 -178.305 15.7566 5.35938e-006 4.66862e-007 -20.423 -1.96297e-005 3.26543e-006 16.2363 -1.09097e-005 5.36067e-008 36.3732 -1.21606e-005 1.12781e-005 13.9816 1.60868e-006 -2.34944e-007 -7.03439 -5.81884 -4.82161 7.68593 5.03695 2.42522e-006 89.9958 3.18052 0.000116117 -8.08582 -2.29909 -5.83863 -100.305 -5.10094 174.827 15.7566 -3.73438e-006 2.27039e-007 -22.8584 8.06402e-006 7.03335e-006 16.2363 5.85257e-006 0.000540072 36.1708 1.0006e-005 -2.70171e-007 13.9816 1.61388e-007 4.60362e-007 -18.6829 11.7314 5.06894 7.68592 5.03698 1.37415e-006 89.996 -0.00264391 4.63296 -7.95839 -2.82211 3.06472e-007 -69.5981 5.70377 177.212 10.9082 -4.75623e-006 5.05255e-008 30.7228 -0.0330981 13.4036 
-24.2032 51.758 0.0468964 -102.085 -85.0672 -0.0632149 -1.07887e-006 -4.26364e-008 -1.48319e-007 -90.042 -3.50835e-015 -90 7.98122 1.06426 0.00288414 -8.95455 0.0310899 -3.48847 14.2466 -0.00814907 5.26472e-007 -15.9711 -0.107988 -7.62033 16.1388 -3.98757 -3.80805e-007 -52.0679 0.0537112 -1.79923 9.69328 -0.0049596 -2.94649e-007 -0.02645 2.89435 8.11295 6.23547 2.12316e-006 -8.7098e-007 24.3425 -6.2891 -1.12884 4.58057 2.14337 -4.04011e-008 -117.169 1.45965 -179 -2.33583 -3.31888 -6.90034 -127.76 9.65026 -91.1634 15.6802 8.30293e-006 1.01623e-006 4.98458 -80.9462 82.0319 15.3149 -3.43606e-006 6.27685e-007 -13.7065 5.85397e-006 1.20244e-005 16.178 -9.19961e-006 1.07676e-006 -8.71172 -83.7064 -20.9089 12.9992 -2.90879e-006 -4.26336e-006 1.44723 10.0959 5.65734 4.92584 2.56728 1.9564 14.1162 -8.48211 -6.70254 -1.89773 -3.30513 7.03939 -128.265 -14.8836 88.8093 15.6802 8.51822e-006 -1.24895e-007 12.1989 62.4916 -96.8272 15.3148 -1.23947e-006 1.06299e-006 -17.2164 2.52719e-006 1.33723e-005 16.178 -7.56088e-006 2.03482e-007 -115.851 81.0272 112.929 12.9992 -3.31243e-007 7.9702e-006 0.00236873 0.0453916 -5.99692 4.92583 2.56728 -1.95637 -165.886 -8.52264 173.302 -7.31869 -2.2908 6.77372 -86.9965 9.93614 -178.308 15.7566 3.55548e-006 -1.90834e-007 -20.2702 -1.30386e-006 1.00822e-005 16.2363 -1.0696e-005 2.33332e-007 36.2591 5.72379e-006 2.92692e-006 13.9816 6.59138e-006 1.21268e-006 -7.03418 -5.80232 -4.84336 7.68593 5.03695 2.19148e-006 89.9958 3.18052 0.000111886 -8.08824 -2.2991 -5.83621 -100.223 -5.1266 174.847 15.7566 8.97627e-007 -1.47008e-006 -22.6443 -1.96428e-005 2.53799e-006 16.2363 5.64102e-006 0.000539987 36.0458 -9.80144e-006 1.89815e-005 13.9816 1.92151e-006 -2.69379e-007 -18.6755 11.7549 5.04581 7.68594 5.03699 5.26527e-008 89.996 -0.0026462 4.63299 -7.95839 -2.82211 -2.41897e-007 -69.434 5.72191 177.144 10.9082 -5.99489e-006 -2.16489e-007 31.115 -0.0513452 13.2383 
-24.2137 51.7678 0.063045 -102.142 -85.0889 -0.116586 -9.53358e-007 -1.51694e-007 5.97818e-007 -90.056 -3.50835e-015 -90 7.98117 1.06412 0.00383658 -8.94338 0.0536022 -3.51116 14.2462 -0.00814329 -1.3354e-005 -15.9296 -0.139664 -7.51457 16.1383 -3.98747 -1.6358e-005 -52.0871 0.0741838 -1.81656 9.69298 -0.00495971 -7.65142e-006 -0.174551 2.92938 8.04669 6.2353 9.24155e-007 -4.69595e-006 24.1808 -6.16805 -1.15246 4.58036 2.14328 -7.29231e-006 -117.101 1.45969 -178.999 -2.33785 -3.3223 -6.8979 -127.734 9.64235 -91.1895 15.6797 -7.89926e-008 -1.54967e-005 5.59771 -80.97 82.6214 15.3144 9.45251e-007 4.03079e-006 -13.783 4.97417e-005 -5.32088e-006 16.1774 3.85364e-006 1.43745e-006 -8.41354 -83.6864 -20.6364 12.9987 -2.69672e-006 3.56131e-006 1.44725 10.0957 5.65726 4.92568 2.56719 1.95633 14.1162 -8.48205 -6.70253 -1.89478 -3.30336 7.04082 -128.249 -14.8669 88.7783 15.6796 4.82833e-006 -1.4115e-005 11.9843 62.5612 -96.6522 15.3143 -8.55704e-006 8.66266e-006 -17.257 5.24249e-005 -2.83187e-005 16.1773 -3.84705e-006 4.37255e-006 -115.815 80.9862 112.942 12.9986 4.39189e-006 5.51268e-006 0.00239013 0.0453344 -5.99684 4.92565 2.56718 -1.9563 -165.886 -8.52274 173.302 -7.31657 -2.28781 6.77568 -86.9866 9.89763 -178.273 15.7562 7.22586e-006 -4.96134e-006 -20.16 3.22808e-005 5.15136e-005 16.2356 3.09142e-006 -9.68416e-006 36.1671 5.11218e-005 6.95829e-006 13.9809 -7.90687e-007 1.7068e-007 -7.03402 -5.78579 -4.86506 7.68538 5.03658 3.11381e-006 89.9958 3.18052 7.52855e-005 -8.09042 -2.29903 -5.83363 -100.148 -5.15181 174.867 15.7559 -3.6072e-006 -5.79668e-006 -22.4482 4.63013e-005 3.60876e-005 16.2355 1.13114e-005 0.000529469 35.9391 5.79185e-005 3.44172e-006 13.9809 -2.60132e-006 -1.17079e-006 -18.6682 11.7784 5.02268 7.68555 5.03673 1.22009e-006 89.996 -0.00264391 4.63293 -7.95827 -2.82206 5.85115e-006 -69.2699 5.7398 177.077 10.908 -2.8668e-006 -8.40859e-006 31.5069 -0.0707125 13.0731 
